<svg xmlns="http://www.w3.org/2000/svg" viewBox="0 0 64 64" aria-labelledby="title"
aria-describedby="desc" role="img" xmlns:xlink="http://www.w3.org/1999/xlink"
width="128" height="128">
  <title>Private Folder</title>
  <desc>A solid styled icon from Orion Icon Library.</desc>
  <path data-name="layer2"
  d="M58 38v-8a8 8 0 1 0-16 0v8h-4v18h24V38zm-6 11a2 2 0 1 1-4 0v-4a2 2 0 1 1 4 0zm-6-11v-8a4 4 0 1 1 8 0v8z"
  fill="#8d8ea3"></path>
  <path data-name="layer1" d="M34 38v-4h4v-4a12 12 0 0 1 16-11.3V14H22V8H2v40.3A1.7 1.7 0 0 0 3.7 50H34z"
  fill="#253858"></path>
</svg>